<svg id="svg2" xmlns="http://www.w3.org/2000/svg" viewBox="0 0 1955.95 1138.07"><defs><style>.cls-1{fill:#111;}.cls-2{fill:#222221;}.cls-3{fill:#fbb72f;}.cls-4{fill:#eca21e;}.cls-5{fill:#3a3a3a;}.cls-6{fill:#21211f;}.cls-7{fill:#393939;}.cls-8{fill:#212120;}.cls-9{fill:#393938;}.cls-10{fill:#22211f;}.cls-11{fill:#f7a91e;}.cls-12{fill:#f7ab20;}.cls-13{fill:#f7aa1e;}</style></defs><path class="cls-1" d="M-63.35,443.19q-269-65.44-538-130.93c-8.15-2-16.24-4.26-29.64-7.79,60.4-27,116.17-52.09,172.09-76.87Q-83.36,61.22,292.36-104.71c10-4.4,22.61-8.07,32.74-6C656.75-42,988.24,27.35,1325,97.72L969.12,269.15,852,256.39l157.05-78.08-2.21-5.08L820.52,252.77l-367.47-33.7Q447,206,441,192.87c-60-30.84-118.39-21.58-175.37,8.28-7.71,4-14,12.21-18.77,19.82-2.27,3.6.51,10.39,1,15.73,15.36,7.76,29.94,18.84,46.23,22.68,51,12,98.63-2.5,144.63-24,5.35.84,10.68,2,16.07,2.49Q610,253.3,765.24,268.6c-5.44,4-10.33,9.39-16.39,11.91Q570.7,354.75,392.17,428.08c-9.45,3.86-21.25,6-31.1,4.24Q95.68,384-169.49,334.47c-33.84-6.26-67.73-12.15-101.6-18.22,3.91,6.77,9,9.69,14.44,11,70.11,17.12,140.3,33.93,210.43,51q196.81,47.82,393.54,96c21,5.19,39.74,4.89,60-5.25,66.62-33.33,134.25-64.61,201.32-97.05s133.87-65.32,200.8-98l121.78,12.14L798.59,351.89,751.65,376,595.06,448.92,550.41,472.2l-36,17.81c-36.47,16.81-72.74,34.08-109.55,50.12-10,4.35-22.34,8.66-32.33,6.65-41.71-8.39-82.92-19.22-124.32-29.12Zm-250-131.86c.07.62.13,1.24.2,1.86l6.88-.72c-.07-.62-.14-1.25-.2-1.87Zm22,3.44-3.56.08c.59.38,1.2,1.08,1.78,1.07S-291.92,315.2-291.33,314.77Z" transform="translate(630.99 111.29)"/><path class="cls-2" d="M550.41,472.2l44.65-23.28c7.52,38.67,14.38,77.48,22.7,116,13.54,62.58,28,125,42.15,187.41,10.19,45,20.5,90,31.1,136.56,7.38-.78,15.45.65,20.68-2.56,36.89-22.61,74.41-44.56,108.93-70.46,9.9-7.42,15.84-27.65,14.47-41.08-3.27-32.09-11.78-63.68-18.53-95.39-10-46.81-20.33-93.54-30.35-140.34q-17.43-81.49-34.56-163l46.94-24.09C828.8,490.14,858.52,628.5,889.7,766.53c5.52,24.42,1.63,44-13.55,62.93-40,49.83-93.06,82.08-149.59,108.45C514.05,1037,295.2,1055.14,71.21,982.63c-36.32-11.76-69.94-32.92-103.38-52.2C-58,915.54-65.28,890.7-64.88,860.69c1.79-134.5,1.81-269,2.41-403.52,0-4.66-.58-9.32-.88-14l311.52,74.47c41.4,9.9,82.61,20.73,124.32,29.12,10,2,22.34-2.3,32.33-6.65,36.81-16,73.08-33.31,109.55-50.12C543,633.79,571.66,777.57,601,925.11l47.49-13.22C615.32,763.09,582.87,617.65,550.41,472.2ZM505,959.5c-45.84-2.19-93.77-2-141.06-7.46-48.35-5.58-97.32-12.51-143.73-26.49C163.4,908.43,108.12,885.21,53.79,861,24.69,848,7.21,824.68,5,788.24.56,716.1-9.23,644.3-16.81,572.36q-1.05-10-2.11-20c-4.09,32-4,63.55-4.22,95.09-.41,50.92-.56,101.86-1.79,152.77-1,39.57-1.82,78.76,40.84,99.84,28.47,14.08,56.58,29.91,86.58,39.7C235.2,983,370.49,983.14,505,959.5Z" transform="translate(630.99 111.29)"/><path class="cls-3" d="M994.17,505.1c41.07,22.54,46.83,39.64,27,80,65,19.08,77.65,52.48,72.31,123.92-2.34,31.34-13.4,62-19.94,93.07-4.85,23.08-5.28,45.27,20.11,58.63-45.92,31.22-112.8,12.41-141.06-25.23-40.6-54-53.57-115.59-37-180.47,5.88-23,25.25-42.55,39.43-65.23-3.52-10.05-14.59-26.18-12.66-40.54,2-14.7,16.73-27.67,25.89-41.4Zm50.33,107.59-2.1-.84,2.06.89,29.6,94.32c1.39-10.47,3.84-22.3,4.35-34.23C1079.49,647.65,1063.57,620.27,1044.5,612.69ZM944.37,640.12c-32.2,42.46-15.08,146.61,26.42,174.89C938.74,761.91,928.22,705.28,944.37,640.12ZM968,653.49c-21.78,28.26-12.31,112,14.07,133.1Zm25.1,190.06,4.39-6.14-19.87-14.33-4.15,5.82Z" transform="translate(630.99 111.29)"/><path class="cls-4" d="M994.17,505.1l-26,2.8C959,439.94,950,372,940.38,304.06c-.89-6.29-6-12-9.15-18L809.45,274q-22.11-2.65-44.21-5.35Q610,253.26,454.77,237.88c-5.39-.54-10.72-1.65-16.07-2.49l14.35-16.32,367.47,33.69L852,256.39l117.09,12.76Z" transform="translate(630.99 111.29)"/><path class="cls-5" d="M751.65,376q17.26,81.52,34.56,163c10,46.8,20.39,93.53,30.35,140.34,6.75,31.71,15.26,63.3,18.53,95.39,1.37,13.43-4.57,33.66-14.47,41.08-34.52,25.9-72,47.85-108.93,70.46-5.23,3.21-13.3,1.78-20.68,2.56-10.6-46.54-20.91-91.54-31.1-136.56-14.15-62.45-28.61-124.83-42.15-187.41-8.32-38.49-15.18-77.3-22.7-116Z" transform="translate(630.99 111.29)"/><path class="cls-6" d="M765.24,268.6q22.1,2.68,44.21,5.35c-66.92,32.67-133.75,65.55-200.79,98S474,435.66,407.34,469c-20.28,10.14-39,10.44-60,5.25q-196.63-48.49-393.54-96c-70.13-17-140.32-33.85-210.43-51-5.46-1.33-10.53-4.25-14.44-11,33.87,6.07,67.76,12,101.6,18.22q265.25,49.06,530.56,97.85c9.85,1.8,21.65-.38,31.1-4.24Q570.78,355,748.85,280.51C754.91,278,759.8,272.64,765.24,268.6Z" transform="translate(630.99 111.29)"/><path class="cls-7" d="M550.41,472.2c32.46,145.45,64.91,290.89,98.12,439.69L601,925.11C571.66,777.57,543,633.79,514.37,490Z" transform="translate(630.99 111.29)"/><path class="cls-8" d="M247.84,236.7c-.49-5.34-3.27-12.13-1-15.73,4.8-7.61,11.06-15.79,18.77-19.82C322.59,171.29,381,162,441,192.86c-12,10.44-22.32,24.89-36.23,30.56-43.55,17.76-89.11,23.12-135.84,12.3C262.31,234.19,254.88,236.28,247.84,236.7Z" transform="translate(630.99 111.29)"/><path class="cls-9" d="M247.84,236.7c7-.42,14.47-2.51,21.07-1,46.73,10.82,92.29,5.46,135.84-12.3C418.66,217.75,429,203.3,441,192.86q6,13.11,12.07,26.21L438.7,235.39c-46,21.49-93.62,36-144.63,24C277.78,255.54,263.2,244.46,247.84,236.7Z" transform="translate(630.99 111.29)"/><path class="cls-10" d="M852,256.39l-31.51-3.63Q913.7,213,1006.87,173.23l2.21,5.08Z" transform="translate(630.99 111.29)"/><path class="cls-6" d="M-313.37,311.33l6.88-.73c.06.62.13,1.25.2,1.87l-6.88.72C-313.24,312.57-313.3,312-313.37,311.33Z" transform="translate(630.99 111.29)"/><path class="cls-6" d="M-291.33,314.78c-.59.42-1.18,1.13-1.78,1.14s-1.19-.69-1.78-1.07Z" transform="translate(630.99 111.29)"/><path class="cls-7" d="M505,959.5C370.49,983.14,235.2,983,102.49,939.73c-30-9.79-58.11-25.62-86.58-39.7-42.66-21.08-41.8-60.27-40.84-99.84,1.23-50.91,1.38-101.85,1.79-152.77.26-31.54.13-63.08,4.22-95.09q1.05,10,2.11,20C-9.23,644.3.56,716.1,5,788.24,7.21,824.68,24.69,848,53.79,861c54.33,24.22,109.61,47.44,166.45,64.56,46.41,14,95.38,20.91,143.73,26.49C411.26,957.5,459.19,957.31,505,959.5Z" transform="translate(630.99 111.29)"/><path class="cls-11" d="M944.37,640.12c-16.15,65.16-5.63,121.79,26.42,174.89C929.29,786.73,912.17,682.58,944.37,640.12Z" transform="translate(630.99 111.29)"/><path class="cls-12" d="M968,653.49l14.07,133.1C955.72,765.52,946.25,681.75,968,653.49Z" transform="translate(630.99 111.29)"/><path class="cls-13" d="M1044.5,612.69c19.07,7.58,35,35,33.91,60.14-.51,11.93-3,23.76-4.35,34.23l-29.6-94.32Z" transform="translate(630.99 111.29)"/><path class="cls-11" d="M993.13,843.55,973.5,828.9l4.15-5.82,19.87,14.33Z" transform="translate(630.99 111.29)"/><path class="cls-13" d="M1044.46,612.74l-2.06-.89,2.1.84Z" transform="translate(630.99 111.29)"/></svg>